<mxfile host="app.diagrams.net" modified="2023-04-01T12:43:11.770Z" agent="Mozilla/5.0 (Windows NT 10.0; Win64; x64) AppleWebKit/537.36 (KHTML, like Gecko) Chrome/111.0.0.0 Safari/537.36 Edg/111.0.1661.62" etag="woGd_djoJAhfK8Lmjv6S" version="21.1.2" type="github">
  <diagram name="第 1 页" id="rFwMT_fQyjhc4z039kA4">
    <mxGraphModel dx="1290" dy="549" grid="1" gridSize="10" guides="1" tooltips="1" connect="1" arrows="1" fold="1" page="1" pageScale="1" pageWidth="827" pageHeight="1169" math="0" shadow="0">
      <root>
        <mxCell id="0" />
        <mxCell id="1" parent="0" />
        <mxCell id="9uJLfeI22ibJk2AYu64b-4" value="" style="shape=umlActor;verticalLabelPosition=bottom;verticalAlign=top;html=1;" vertex="1" parent="1">
          <mxGeometry x="145" y="40" width="30" height="60" as="geometry" />
        </mxCell>
        <mxCell id="9uJLfeI22ibJk2AYu64b-11" value="&lt;u&gt;&lt;b&gt;:User&lt;/b&gt;&lt;/u&gt;" style="shape=umlLifeline;perimeter=lifelinePerimeter;whiteSpace=wrap;html=1;container=1;dropTarget=0;collapsible=0;recursiveResize=0;outlineConnect=0;portConstraint=eastwest;newEdgeStyle={&quot;edgeStyle&quot;:&quot;elbowEdgeStyle&quot;,&quot;elbow&quot;:&quot;vertical&quot;,&quot;curved&quot;:0,&quot;rounded&quot;:0};" vertex="1" parent="1">
          <mxGeometry x="110" y="110" width="100" height="380" as="geometry" />
        </mxCell>
        <mxCell id="9uJLfeI22ibJk2AYu64b-12" value="" style="html=1;points=[];perimeter=orthogonalPerimeter;outlineConnect=0;targetShapes=umlLifeline;portConstraint=eastwest;newEdgeStyle={&quot;edgeStyle&quot;:&quot;elbowEdgeStyle&quot;,&quot;elbow&quot;:&quot;vertical&quot;,&quot;curved&quot;:0,&quot;rounded&quot;:0};" vertex="1" parent="9uJLfeI22ibJk2AYu64b-11">
          <mxGeometry x="45" y="90" width="10" height="80" as="geometry" />
        </mxCell>
        <mxCell id="9uJLfeI22ibJk2AYu64b-19" value="" style="html=1;points=[];perimeter=orthogonalPerimeter;outlineConnect=0;targetShapes=umlLifeline;portConstraint=eastwest;newEdgeStyle={&quot;edgeStyle&quot;:&quot;elbowEdgeStyle&quot;,&quot;elbow&quot;:&quot;vertical&quot;,&quot;curved&quot;:0,&quot;rounded&quot;:0};" vertex="1" parent="9uJLfeI22ibJk2AYu64b-11">
          <mxGeometry x="45" y="210" width="10" height="80" as="geometry" />
        </mxCell>
        <mxCell id="9uJLfeI22ibJk2AYu64b-13" value="&lt;b&gt;&lt;u&gt;:SysBorder&lt;/u&gt;&lt;/b&gt;" style="shape=umlLifeline;perimeter=lifelinePerimeter;whiteSpace=wrap;html=1;container=1;dropTarget=0;collapsible=0;recursiveResize=0;outlineConnect=0;portConstraint=eastwest;newEdgeStyle={&quot;edgeStyle&quot;:&quot;elbowEdgeStyle&quot;,&quot;elbow&quot;:&quot;vertical&quot;,&quot;curved&quot;:0,&quot;rounded&quot;:0};" vertex="1" parent="1">
          <mxGeometry x="314" y="110" width="100" height="380" as="geometry" />
        </mxCell>
        <mxCell id="9uJLfeI22ibJk2AYu64b-14" value="" style="html=1;points=[];perimeter=orthogonalPerimeter;outlineConnect=0;targetShapes=umlLifeline;portConstraint=eastwest;newEdgeStyle={&quot;edgeStyle&quot;:&quot;elbowEdgeStyle&quot;,&quot;elbow&quot;:&quot;vertical&quot;,&quot;curved&quot;:0,&quot;rounded&quot;:0};" vertex="1" parent="9uJLfeI22ibJk2AYu64b-13">
          <mxGeometry x="45" y="90" width="10" height="80" as="geometry" />
        </mxCell>
        <mxCell id="9uJLfeI22ibJk2AYu64b-42" value="" style="html=1;points=[];perimeter=orthogonalPerimeter;outlineConnect=0;targetShapes=umlLifeline;portConstraint=eastwest;newEdgeStyle={&quot;edgeStyle&quot;:&quot;elbowEdgeStyle&quot;,&quot;elbow&quot;:&quot;vertical&quot;,&quot;curved&quot;:0,&quot;rounded&quot;:0};" vertex="1" parent="9uJLfeI22ibJk2AYu64b-13">
          <mxGeometry y="160" width="10" height="20" as="geometry" />
        </mxCell>
        <mxCell id="9uJLfeI22ibJk2AYu64b-46" value="" style="html=1;points=[];perimeter=orthogonalPerimeter;outlineConnect=0;targetShapes=umlLifeline;portConstraint=eastwest;newEdgeStyle={&quot;edgeStyle&quot;:&quot;elbowEdgeStyle&quot;,&quot;elbow&quot;:&quot;vertical&quot;,&quot;curved&quot;:0,&quot;rounded&quot;:0};" vertex="1" parent="9uJLfeI22ibJk2AYu64b-13">
          <mxGeometry x="45" y="210" width="10" height="80" as="geometry" />
        </mxCell>
        <mxCell id="9uJLfeI22ibJk2AYu64b-15" value="Login" style="html=1;verticalAlign=bottom;endArrow=block;edgeStyle=elbowEdgeStyle;elbow=vertical;curved=0;rounded=0;" edge="1" parent="1" source="9uJLfeI22ibJk2AYu64b-12">
          <mxGeometry width="80" relative="1" as="geometry">
            <mxPoint x="180" y="220" as="sourcePoint" />
            <mxPoint x="360" y="220" as="targetPoint" />
            <Array as="points">
              <mxPoint x="220" y="220" />
            </Array>
          </mxGeometry>
        </mxCell>
        <mxCell id="9uJLfeI22ibJk2AYu64b-16" value="success" style="html=1;verticalAlign=bottom;endArrow=open;dashed=1;endSize=8;edgeStyle=elbowEdgeStyle;elbow=vertical;curved=0;rounded=0;" edge="1" parent="1" source="9uJLfeI22ibJk2AYu64b-14" target="9uJLfeI22ibJk2AYu64b-12">
          <mxGeometry relative="1" as="geometry">
            <mxPoint x="250" y="240" as="sourcePoint" />
            <mxPoint x="170" y="240" as="targetPoint" />
            <Array as="points">
              <mxPoint x="262" y="260" />
            </Array>
          </mxGeometry>
        </mxCell>
        <mxCell id="9uJLfeI22ibJk2AYu64b-38" value="" style="endArrow=None;dashed=1;endFill=0;endSize=12;html=1;rounded=0;" edge="1" parent="1">
          <mxGeometry width="160" relative="1" as="geometry">
            <mxPoint x="170" y="230" as="sourcePoint" />
            <mxPoint x="207" y="265" as="targetPoint" />
          </mxGeometry>
        </mxCell>
        <mxCell id="9uJLfeI22ibJk2AYu64b-39" value="" style="endArrow=None;dashed=1;endFill=0;endSize=12;html=1;rounded=0;" edge="1" parent="1" source="9uJLfeI22ibJk2AYu64b-26">
          <mxGeometry width="160" relative="1" as="geometry">
            <mxPoint x="207" y="265" as="sourcePoint" />
            <mxPoint x="207" y="290" as="targetPoint" />
          </mxGeometry>
        </mxCell>
        <mxCell id="9uJLfeI22ibJk2AYu64b-40" value="" style="endArrow=None;dashed=1;endFill=0;endSize=12;html=1;rounded=0;" edge="1" parent="1" source="9uJLfeI22ibJk2AYu64b-14">
          <mxGeometry width="160" relative="1" as="geometry">
            <mxPoint x="353" y="230" as="sourcePoint" />
            <mxPoint x="320" y="270" as="targetPoint" />
            <Array as="points">
              <mxPoint x="340" y="230" />
            </Array>
          </mxGeometry>
        </mxCell>
        <mxCell id="9uJLfeI22ibJk2AYu64b-43" value="" style="endArrow=None;dashed=1;endFill=0;endSize=12;html=1;rounded=0;" edge="1" parent="1" target="9uJLfeI22ibJk2AYu64b-26">
          <mxGeometry width="160" relative="1" as="geometry">
            <mxPoint x="207" y="265" as="sourcePoint" />
            <mxPoint x="207" y="290" as="targetPoint" />
          </mxGeometry>
        </mxCell>
        <mxCell id="9uJLfeI22ibJk2AYu64b-26" value="" style="html=1;points=[];perimeter=orthogonalPerimeter;outlineConnect=0;targetShapes=umlLifeline;portConstraint=eastwest;newEdgeStyle={&quot;edgeStyle&quot;:&quot;elbowEdgeStyle&quot;,&quot;elbow&quot;:&quot;vertical&quot;,&quot;curved&quot;:0,&quot;rounded&quot;:0};" vertex="1" parent="1">
          <mxGeometry x="200" y="270" width="10" height="20" as="geometry" />
        </mxCell>
        <mxCell id="9uJLfeI22ibJk2AYu64b-44" value="failure" style="html=1;verticalAlign=bottom;endArrow=open;dashed=1;endSize=8;edgeStyle=elbowEdgeStyle;elbow=vertical;curved=0;rounded=0;" edge="1" parent="1">
          <mxGeometry relative="1" as="geometry">
            <mxPoint x="310" y="280" as="sourcePoint" />
            <mxPoint x="210" y="280" as="targetPoint" />
          </mxGeometry>
        </mxCell>
        <mxCell id="9uJLfeI22ibJk2AYu64b-47" value="find" style="html=1;verticalAlign=bottom;endArrow=block;edgeStyle=elbowEdgeStyle;elbow=vertical;curved=0;rounded=0;" edge="1" target="9uJLfeI22ibJk2AYu64b-46" parent="1" source="9uJLfeI22ibJk2AYu64b-19">
          <mxGeometry relative="1" as="geometry">
            <mxPoint x="289" y="330" as="sourcePoint" />
            <Array as="points">
              <mxPoint x="290" y="340" />
            </Array>
          </mxGeometry>
        </mxCell>
        <mxCell id="9uJLfeI22ibJk2AYu64b-48" value="return" style="html=1;verticalAlign=bottom;endArrow=open;dashed=1;endSize=8;edgeStyle=elbowEdgeStyle;elbow=vertical;curved=0;rounded=0;" edge="1" source="9uJLfeI22ibJk2AYu64b-46" parent="1" target="9uJLfeI22ibJk2AYu64b-19">
          <mxGeometry relative="1" as="geometry">
            <mxPoint x="289" y="405" as="targetPoint" />
            <Array as="points">
              <mxPoint x="280" y="370" />
              <mxPoint x="290" y="380" />
              <mxPoint x="310" y="390" />
            </Array>
          </mxGeometry>
        </mxCell>
        <mxCell id="9uJLfeI22ibJk2AYu64b-49" value="&lt;u&gt;&lt;b&gt;:SysController&lt;/b&gt;&lt;/u&gt;" style="shape=umlLifeline;perimeter=lifelinePerimeter;whiteSpace=wrap;html=1;container=1;dropTarget=0;collapsible=0;recursiveResize=0;outlineConnect=0;portConstraint=eastwest;newEdgeStyle={&quot;edgeStyle&quot;:&quot;elbowEdgeStyle&quot;,&quot;elbow&quot;:&quot;vertical&quot;,&quot;curved&quot;:0,&quot;rounded&quot;:0};" vertex="1" parent="1">
          <mxGeometry x="510" y="110" width="100" height="300" as="geometry" />
        </mxCell>
        <mxCell id="9uJLfeI22ibJk2AYu64b-51" value="" style="html=1;points=[];perimeter=orthogonalPerimeter;outlineConnect=0;targetShapes=umlLifeline;portConstraint=eastwest;newEdgeStyle={&quot;edgeStyle&quot;:&quot;elbowEdgeStyle&quot;,&quot;elbow&quot;:&quot;vertical&quot;,&quot;curved&quot;:0,&quot;rounded&quot;:0};" vertex="1" parent="9uJLfeI22ibJk2AYu64b-49">
          <mxGeometry x="45" y="90" width="10" height="80" as="geometry" />
        </mxCell>
        <mxCell id="9uJLfeI22ibJk2AYu64b-52" value="dispatch" style="html=1;verticalAlign=bottom;endArrow=block;edgeStyle=elbowEdgeStyle;elbow=vertical;curved=0;rounded=0;" edge="1" target="9uJLfeI22ibJk2AYu64b-51" parent="1" source="9uJLfeI22ibJk2AYu64b-13">
          <mxGeometry relative="1" as="geometry">
            <mxPoint x="485" y="200" as="sourcePoint" />
            <Array as="points">
              <mxPoint x="440" y="220" />
            </Array>
          </mxGeometry>
        </mxCell>
        <mxCell id="9uJLfeI22ibJk2AYu64b-53" value="return" style="html=1;verticalAlign=bottom;endArrow=open;dashed=1;endSize=8;edgeStyle=elbowEdgeStyle;elbow=vertical;curved=0;rounded=0;" edge="1" source="9uJLfeI22ibJk2AYu64b-51" parent="1" target="9uJLfeI22ibJk2AYu64b-13">
          <mxGeometry relative="1" as="geometry">
            <mxPoint x="485" y="275" as="targetPoint" />
            <Array as="points">
              <mxPoint x="520" y="260" />
            </Array>
          </mxGeometry>
        </mxCell>
        <mxCell id="9uJLfeI22ibJk2AYu64b-54" value="&lt;b&gt;&lt;u&gt;:UserBoard&lt;/u&gt;&lt;/b&gt;" style="shape=umlLifeline;perimeter=lifelinePerimeter;whiteSpace=wrap;html=1;container=1;dropTarget=0;collapsible=0;recursiveResize=0;outlineConnect=0;portConstraint=eastwest;newEdgeStyle={&quot;edgeStyle&quot;:&quot;elbowEdgeStyle&quot;,&quot;elbow&quot;:&quot;vertical&quot;,&quot;curved&quot;:0,&quot;rounded&quot;:0};" vertex="1" parent="1">
          <mxGeometry x="690" y="110" width="100" height="300" as="geometry" />
        </mxCell>
      </root>
    </mxGraphModel>
  </diagram>
</mxfile>
